<?xml version="1.0" encoding="UTF-8" standalone="no"?>
<svg
   xmlns:dc="http://purl.org/dc/elements/1.1/"
   xmlns:cc="http://creativecommons.org/ns#"
   xmlns:rdf="http://www.w3.org/1999/02/22-rdf-syntax-ns#"
   xmlns:svg="http://www.w3.org/2000/svg"
   xmlns="http://www.w3.org/2000/svg"
   xmlns:sodipodi="http://sodipodi.sourceforge.net/DTD/sodipodi-0.dtd"
   xmlns:inkscape="http://www.inkscape.org/namespaces/inkscape"
   sodipodi:docname="sessionCookie.svg"
   inkscape:version="1.0 (4035a4fb49, 2020-05-01)"
   id="svg8"
   version="1.1"
   viewBox="0 0 210 297"
   height="297mm"
   width="210mm">
  <defs
     id="defs2">
    <marker
       inkscape:isstock="true"
       style="overflow:visible;"
       id="Arrow1Lend"
       refX="0.0"
       refY="0.0"
       orient="auto"
       inkscape:stockid="Arrow1Lend">
      <path
         transform="scale(0.8) rotate(180) translate(12.5,0)"
         style="fill-rule:evenodd;stroke:#000000;stroke-width:1pt;stroke-opacity:1;fill:#000000;fill-opacity:1"
         d="M 0.0,0.0 L 5.0,-5.0 L -12.5,0.0 L 5.0,5.0 L 0.0,0.0 z "
         id="path1244" />
    </marker>
    <marker
       inkscape:stockid="Arrow1Lstart"
       orient="auto"
       refY="0.0"
       refX="0.0"
       id="marker1521"
       style="overflow:visible"
       inkscape:isstock="true">
      <path
         id="path1519"
         d="M 0.0,0.0 L 5.0,-5.0 L -12.5,0.0 L 5.0,5.0 L 0.0,0.0 z "
         style="fill-rule:evenodd;stroke:#000000;stroke-width:1pt;stroke-opacity:1;fill:#000000;fill-opacity:1"
         transform="scale(0.8) translate(12.5,0)" />
    </marker>
    <marker
       inkscape:collect="always"
       inkscape:isstock="true"
       style="overflow:visible"
       id="Arrow1Lstart"
       refX="0.0"
       refY="0.0"
       orient="auto"
       inkscape:stockid="Arrow1Lstart">
      <path
         transform="scale(0.8) translate(12.5,0)"
         style="fill-rule:evenodd;stroke:#000000;stroke-width:1pt;stroke-opacity:1;fill:#000000;fill-opacity:1"
         d="M 0.0,0.0 L 5.0,-5.0 L -12.5,0.0 L 5.0,5.0 L 0.0,0.0 z "
         id="path1241" />
    </marker>
  </defs>
  <sodipodi:namedview
     inkscape:window-maximized="0"
     inkscape:window-y="0"
     inkscape:window-x="0"
     inkscape:window-height="2117"
     inkscape:window-width="3840"
     showgrid="true"
     inkscape:document-rotation="0"
     inkscape:current-layer="layer1"
     inkscape:document-units="mm"
     inkscape:cy="196.70816"
     inkscape:cx="252.6166"
     inkscape:zoom="3.0075616"
     inkscape:pageshadow="2"
     inkscape:pageopacity="0.0"
     borderopacity="1.0"
     bordercolor="#666666"
     pagecolor="#ffffff"
     id="base">
    <inkscape:grid
       id="grid10"
       type="xygrid" />
  </sodipodi:namedview>
  <metadata
     id="metadata5">
    <rdf:RDF>
      <cc:Work
         rdf:about="">
        <dc:format>image/svg+xml</dc:format>
        <dc:type
           rdf:resource="http://purl.org/dc/dcmitype/StillImage" />
        <dc:title></dc:title>
      </cc:Work>
    </rdf:RDF>
  </metadata>
  <g
     id="layer1"
     inkscape:groupmode="layer"
     inkscape:label="Layer 1">
    <path
       style="stroke-width:0.617361"
       id="path174"
       d="m 38.165264,21.261034 a 1.8434404,1.8434404 0 0 0 -1.740959,-1.240896 h -0.617361 v -1.234722 h 0.617361 a 1.8576397,1.8576397 0 0 0 1.852084,-1.852084 V 11.994443 A 1.8576397,1.8576397 0 0 0 36.424305,10.14236 H 14.199304 a 1.8576397,1.8576397 0 0 0 -1.852084,1.852083 v 4.938889 a 1.8576397,1.8576397 0 0 0 1.852084,1.852084 h 0.617361 v 1.234722 h -0.617361 a 1.8576397,1.8576397 0 0 0 -1.852084,1.852084 v 4.938889 a 1.8576397,1.8576397 0 0 0 1.852084,1.852083 h 0.617361 v 1.234722 H 14.199304 A 1.8576397,1.8576397 0 0 0 12.34722,31.75 v 4.938889 a 1.8576397,1.8576397 0 0 0 1.852084,1.852084 h 11.729862 v 4.938889 c 0,2.432403 5.901972,3.704167 11.729861,3.704167 5.82789,0 11.729862,-1.271764 11.729862,-3.704167 V 24.959027 c 0,-2.364493 -5.562424,-3.62391 -11.223625,-3.697993 z m -23.96596,-3.71034 a 0.61736115,0.61736115 0 0 1 -0.617361,-0.617362 v -4.938889 a 0.61736115,0.61736115 0 0 1 0.617361,-0.617361 h 22.225001 a 0.61736115,0.61736115 0 0 1 0.617361,0.617361 v 4.938889 a 0.61736115,0.61736115 0 0 1 -0.617361,0.617362 z m 20.372918,1.234722 v 1.234722 h -2.469445 v -1.234722 z m -3.704167,0 v 1.234722 H 19.755554 v -1.234722 z m -12.347223,0 v 1.234722 H 16.051387 V 18.785416 Z M 25.929166,37.30625 H 14.199304 A 0.61736115,0.61736115 0 0 1 13.581943,36.688889 V 31.75 a 0.61736115,0.61736115 0 0 1 0.617361,-0.617361 h 11.729862 z m -9.877779,-7.408334 v -1.234722 h 2.469445 v 1.234722 z m 9.877779,0 h -6.173612 v -1.234722 h 6.173612 z m 0,-4.938889 v 2.469445 H 14.199304 a 0.61736115,0.61736115 0 0 1 -0.617361,-0.617361 v -4.938889 a 0.61736115,0.61736115 0 0 1 0.617361,-0.617362 h 22.225001 a 0.43215281,0.43215281 0 0 1 0.08643,0.01852 c -5.432778,0.154341 -10.58157,1.413757 -10.58157,3.685646 z m 22.225001,18.520835 c 0,0.839611 -3.704167,2.469444 -10.49514,2.469444 -6.790972,0 -10.495139,-1.629833 -10.495139,-2.469444 v -4.432653 c 2.031118,1.290285 6.272389,1.963208 10.495139,1.963208 4.222751,0 8.464022,-0.672923 10.49514,-1.963208 z m 0,-6.173612 c 0,0.839611 -3.704167,2.469445 -10.49514,2.469445 -6.790972,0 -10.495139,-1.629834 -10.495139,-2.469445 v -4.432653 c 2.031118,1.290285 6.272389,1.963209 10.495139,1.963209 4.222751,0 8.464022,-0.672924 10.49514,-1.963209 z m 0,-6.173611 c 0,0.839611 -3.704167,2.469444 -10.49514,2.469444 -6.790972,0 -10.495139,-1.629833 -10.495139,-2.469444 v -4.432653 c 2.031118,1.290285 6.272389,1.963208 10.495139,1.963208 4.222751,0 8.464022,-0.672923 10.49514,-1.963208 z m -10.49514,-3.704167 c -6.790972,0 -10.495139,-1.629834 -10.495139,-2.469445 0,-0.839611 3.704167,-2.469444 10.495139,-2.469444 6.790973,0 10.49514,1.629833 10.49514,2.469444 0,0.839611 -3.704167,2.469445 -10.49514,2.469445 z" />
    <path
       style="stroke-width:0.617361"
       id="path176"
       d="m 37.041666,30.515278 h 1.234723 V 31.75 h -1.234723 z" />
    <path
       style="stroke-width:0.617361"
       id="path178"
       d="m 37.041666,37.30625 h 1.234723 v 1.234723 h -1.234723 z" />
    <path
       style="stroke-width:0.617361"
       id="path180"
       d="m 37.041666,42.862501 h 1.234723 v 1.234722 h -1.234723 z" />
    <path
       style="stroke-width:0.617361"
       id="path182"
       d="m 17.903471,22.489583 h -2.469445 a 0.61736115,0.61736115 0 0 0 -0.617361,0.617361 v 2.469444 a 0.61736115,0.61736115 0 0 0 0.617361,0.617362 h 2.469445 a 0.61736115,0.61736115 0 0 0 0.617361,-0.617362 v -2.469444 a 0.61736115,0.61736115 0 0 0 -0.617361,-0.617361 z m -0.617361,2.469444 h -1.234723 v -1.234722 h 1.234723 z" />
    <path
       style="stroke-width:0.617361"
       id="path184"
       d="m 22.84236,22.489583 h -2.469445 a 0.61736115,0.61736115 0 0 0 -0.617361,0.617361 v 2.469444 a 0.61736115,0.61736115 0 0 0 0.617361,0.617362 h 2.469445 a 0.61736115,0.61736115 0 0 0 0.617361,-0.617362 V 23.106944 A 0.61736115,0.61736115 0 0 0 22.84236,22.489583 Z m -0.617361,2.469444 h -1.234723 v -1.234722 h 1.234723 z" />
    <path
       style="stroke-width:0.617361"
       id="path186"
       d="m 17.903471,12.611804 h -2.469445 a 0.61736115,0.61736115 0 0 0 -0.617361,0.617361 v 2.469445 a 0.61736115,0.61736115 0 0 0 0.617361,0.617361 h 2.469445 a 0.61736115,0.61736115 0 0 0 0.617361,-0.617361 v -2.469445 a 0.61736115,0.61736115 0 0 0 -0.617361,-0.617361 z m -0.617361,2.469445 h -1.234723 v -1.234722 h 1.234723 z" />
    <path
       style="stroke-width:0.617361"
       id="path188"
       d="m 22.84236,12.611804 h -2.469445 a 0.61736115,0.61736115 0 0 0 -0.617361,0.617361 v 2.469445 a 0.61736115,0.61736115 0 0 0 0.617361,0.617361 H 22.84236 A 0.61736115,0.61736115 0 0 0 23.459721,15.69861 V 13.229165 A 0.61736115,0.61736115 0 0 0 22.84236,12.611804 Z m -0.617361,2.469445 h -1.234723 v -1.234722 h 1.234723 z" />
    <path
       style="stroke-width:0.617361"
       id="path190"
       d="m 24.694443,12.611804 h 8.643056 v 1.234723 h -8.643056 z" />
    <path
       style="stroke-width:0.617361"
       id="path192"
       d="m 34.572222,12.611804 h 1.234722 v 1.234723 h -1.234722 z" />
    <path
       style="stroke-width:0.617361"
       id="path194"
       d="m 24.694443,15.081249 h 8.643056 v 1.234722 h -8.643056 z" />
    <path
       style="stroke-width:0.617361"
       id="path196"
       d="m 34.572222,15.081249 h 1.234722 v 1.234722 h -1.234722 z" />
    <path
       style="stroke-width:0.617361"
       id="path198"
       d="m 17.903471,32.367361 h -2.469445 a 0.61736115,0.61736115 0 0 0 -0.617361,0.617361 v 2.469445 a 0.61736115,0.61736115 0 0 0 0.617361,0.617361 h 2.469445 a 0.61736115,0.61736115 0 0 0 0.617361,-0.617361 v -2.469445 a 0.61736115,0.61736115 0 0 0 -0.617361,-0.617361 z m -0.617361,2.469445 h -1.234723 v -1.234723 h 1.234723 z" />
    <path
       style="stroke-width:0.617361"
       id="path200"
       d="m 22.84236,32.367361 h -2.469445 a 0.61736115,0.61736115 0 0 0 -0.617361,0.617361 v 2.469445 a 0.61736115,0.61736115 0 0 0 0.617361,0.617361 h 2.469445 a 0.61736115,0.61736115 0 0 0 0.617361,-0.617361 V 32.984722 A 0.61736115,0.61736115 0 0 0 22.84236,32.367361 Z m -0.617361,2.469445 h -1.234723 v -1.234723 h 1.234723 z" />
    <g
       transform="translate(0,-0.95711696)"
       id="g388">
      <g
         id="g213"
         transform="matrix(0.08237826,0,0,0.08237826,94.704018,8.5314766)">
        <path
           d="m 511.976,416.063 c -0.005,-0.075 -0.004,-0.149 -0.011,-0.224 -0.027,-0.297 -0.07,-0.588 -0.131,-0.873 -0.006,-0.028 -0.015,-0.056 -0.022,-0.084 -0.059,-0.262 -0.132,-0.518 -0.218,-0.768 -0.023,-0.067 -0.048,-0.132 -0.073,-0.198 -0.084,-0.227 -0.179,-0.448 -0.284,-0.663 -0.018,-0.038 -0.03,-0.077 -0.049,-0.115 L 471.076,334.02 V 73.72 c 0,-8.006 -6.513,-14.519 -14.519,-14.519 H 55.441 c -8.006,0 -14.519,6.513 -14.519,14.519 V 334.018 L 0.811,413.137 c -0.019,0.038 -0.031,0.077 -0.049,0.115 -0.105,0.215 -0.199,0.436 -0.284,0.662 -0.025,0.066 -0.05,0.132 -0.073,0.199 -0.085,0.251 -0.159,0.508 -0.218,0.77 -0.006,0.027 -0.015,0.054 -0.021,0.081 -0.061,0.286 -0.104,0.577 -0.131,0.874 -0.007,0.074 -0.007,0.149 -0.011,0.223 C 0.014,416.217 0,416.371 0,416.529 v 19.026 c 0,9.509 7.735,17.244 17.244,17.244 h 477.512 c 9.509,0 17.244,-7.735 17.244,-17.244 v -19.026 c 0,-0.158 -0.014,-0.312 -0.024,-0.466 z M 55.923,74.203 H 456.077 V 328.312 H 55.923 Z M 53.029,343.311 H 458.97 l 33.318,65.717 h -164.78 l -8.271,-29.989 c -1.684,-6.105 -7.282,-10.369 -13.615,-10.369 h -99.246 c -6.333,0 -11.932,4.264 -13.615,10.368 l -8.271,29.99 H 19.711 Z m 258.919,65.718 H 200.052 l 6.993,-25.358 h 97.91 z M 497,435.554 c 0,1.237 -1.007,2.244 -2.244,2.244 H 17.244 c -1.237,0 -2.244,-1.007 -2.244,-2.244 v -11.526 h 482 z"
           id="path211" />
      </g>
      <g
         id="g219"
         transform="matrix(0.08237826,0,0,0.08237826,94.704018,8.5314766)">
        <path
           d="m 432.577,213.756 c -4.143,0 -7.5,3.357 -7.5,7.5 v 76.055 H 86.923 v -76.055 c 0,-4.143 -3.357,-7.5 -7.5,-7.5 -4.143,0 -7.5,3.357 -7.5,7.5 v 79.294 c 0,6.485 5.275,11.761 11.761,11.761 h 344.633 c 6.485,0 11.761,-5.275 11.761,-11.761 v -79.294 c -10e-4,-4.141 -3.358,-7.5 -7.501,-7.5 z"
           id="path217" />
      </g>
      <g
         id="g225"
         transform="matrix(0.08237826,0,0,0.08237826,94.704018,8.5314766)">
        <path
           d="M 428.316,90.203 H 83.684 c -6.485,0 -11.761,5.275 -11.761,11.761 v 79.294 c 0,4.143 3.357,7.5 7.5,7.5 4.143,0 7.5,-3.357 7.5,-7.5 v -76.055 h 338.154 v 76.055 c 0,4.143 3.357,7.5 7.5,7.5 4.143,0 7.5,-3.357 7.5,-7.5 v -79.294 c 0,-6.487 -5.275,-11.761 -11.761,-11.761 z"
           id="path223" />
      </g>
    </g>
    <text
       id="text406"
       y="55.29792"
       x="10.778905"
       style="font-style:normal;font-weight:normal;font-size:10.5833px;line-height:1.25;font-family:sans-serif;fill:#000000;fill-opacity:1;stroke:none;stroke-width:0.264583"
       xml:space="preserve"><tspan
         style="stroke-width:0.264583"
         y="55.29792"
         x="10.778905"
         id="tspan404"
         sodipodi:role="line">Session</tspan></text>
    <text
       id="text410"
       y="55.29792"
       x="97.817261"
       style="font-style:normal;font-weight:normal;font-size:10.5833px;line-height:1.25;font-family:sans-serif;fill:#000000;fill-opacity:1;stroke:none;stroke-width:0.264583"
       xml:space="preserve"><tspan
         style="stroke-width:0.264583"
         y="55.29792"
         x="97.817261"
         id="tspan408"
         sodipodi:role="line">Cookie</tspan></text>
    <path
       id="path1239"
       d="M 93.927082,18.520833 H 51.593749"
       style="fill:none;stroke:#000000;stroke-width:0.5;stroke-linecap:butt;stroke-linejoin:miter;stroke-opacity:1;marker-start:url(#Arrow1Lstart);stroke-miterlimit:3.95000005;stroke-dasharray:none" />
    <path
       id="path1517"
       d="M 93.927082,34.395833 H 51.593749"
       style="fill:none;stroke:#000000;stroke-width:0.5;stroke-linecap:butt;stroke-linejoin:miter;stroke-opacity:1;marker-end:url(#Arrow1Lend);stroke-miterlimit:3.95000005;stroke-dasharray:none" />
  </g>
</svg>
